<?xml version="1.0" standalone="no"?>
<!DOCTYPE svg PUBLIC "-//W3C//DTD SVG 20010904//EN"
 "http://www.w3.org/TR/2001/REC-SVG-20010904/DTD/svg10.dtd">
<svg version="1.0" xmlns="http://www.w3.org/2000/svg"
 width="256.000000pt" height="256.000000pt" viewBox="0 0 256.000000 256.000000"
 preserveAspectRatio="xMidYMid meet">

<g transform="translate(0.000000,256.000000) scale(0.100000,-0.100000)"
fill="#000000" stroke="none">
<path d="M190 2551 c-69 -21 -130 -73 -166 -141 -18 -34 -19 -81 -19 -1130 0
-1049 1 -1096 19 -1130 26 -49 74 -98 121 -123 l40 -22 1095 0 1095 0 40 22
c47 25 95 74 121 123 18 34 19 81 19 1130 l0 1095 -22 40 c-25 47 -74 95 -123
121 -33 18 -83 19 -1115 21 -594 1 -1091 -2 -1105 -6z m1457 -1113 c4 -7 8
-82 8 -166 l0 -153 -25 3 c-20 2 -26 10 -30 38 l-5 34 -12 -26 c-46 -101 -159
-47 -134 64 17 74 53 108 114 108 l39 0 -4 50 c-1 28 2 52 7 54 19 8 34 6 42
-6z m121 -24 c4 -27 -21 -47 -48 -39 -20 6 -28 44 -13 59 15 15 58 1 61 -20z
m-1383 -9 c30 -30 31 -54 4 -89 -11 -14 -16 -26 -10 -26 22 0 51 -41 51 -71 0
-45 -53 -95 -111 -104 -53 -8 -126 14 -120 36 2 7 3 71 3 141 -1 145 -9 134
101 137 49 1 62 -3 82 -24z m1023 3 c-3 -21 -9 -23 -65 -26 l-63 -3 0 -40 0
-40 55 2 c63 3 71 -1 55 -31 -11 -20 -17 -22 -61 -16 l-49 7 0 -52 0 -52 70 7
c64 6 70 5 70 -13 0 -36 -24 -43 -115 -36 l-85 7 0 154 0 154 96 0 c93 0 95
-1 92 -22z m-638 -38 c5 -33 7 -35 38 -32 24 3 32 -1 32 -12 0 -18 -29 -35
-49 -28 -20 7 -31 -17 -31 -70 0 -55 20 -81 56 -72 18 5 24 2 24 -10 0 -22
-36 -38 -71 -31 -47 11 -63 44 -56 120 6 60 5 65 -13 65 -27 0 -26 30 1 37 14
4 20 13 19 32 -3 40 -2 43 23 39 17 -2 23 -11 27 -38z m1118 -2 c3 -36 4 -36
38 -31 27 4 34 2 34 -10 0 -21 -19 -31 -52 -29 -28 2 -28 2 -28 -62 0 -69 14
-92 50 -81 15 5 20 2 20 -13 0 -37 -53 -43 -94 -11 -24 19 -26 26 -26 95 0 59
-3 74 -15 74 -22 0 -18 31 5 37 17 5 19 11 14 40 -6 33 -6 34 22 31 25 -3 29
-8 32 -40z m-1250 -52 c23 -22 27 -107 8 -144 -31 -61 -117 -82 -160 -39 -36
37 -42 90 -14 145 18 36 31 50 58 58 38 12 85 4 108 -20z m398 14 c9 0 12 -36
4 -51 -14 -25 -37 -24 -45 1 -4 14 -15 20 -35 20 -36 0 -40 -7 -43 -69 -1 -36
3 -55 15 -67 21 -21 64 -12 73 17 9 26 39 21 43 -8 2 -16 -6 -28 -30 -43 -56
-34 -125 -21 -147 27 -44 95 39 209 134 182 16 -5 31 -9 31 -9z m1092 5 c26
-8 52 -58 52 -101 0 -97 -108 -159 -175 -101 -36 30 -44 97 -18 147 19 36 76
73 103 66 8 -3 26 -7 38 -11z m-371 -12 c5 -10 7 -60 5 -111 l-3 -93 -27 3
-27 3 2 105 c2 58 3 106 3 108 0 11 41 -2 47 -15z m511 -16 l3 -28 29 31 c22
23 36 31 57 28 31 -3 44 -38 23 -64 -16 -18 -40 -18 -40 1 0 8 -7 15 -15 15
-23 0 -49 -60 -49 -117 -1 -51 -2 -53 -28 -53 -16 0 -28 6 -29 13 -1 10 0 194
1 205 0 2 10 2 23 0 16 -2 23 -11 25 -31z"/>
<path d="M1510 1274 c-14 -37 -12 -100 4 -113 18 -15 42 8 67 64 29 63 26 75
-21 75 -34 0 -42 -4 -50 -26z"/>
<path d="M260 1345 c0 -40 2 -45 23 -45 30 0 67 27 67 49 0 26 -20 41 -57 41
-32 0 -33 -1 -33 -45z"/>
<path d="M260 1210 l0 -50 38 0 c43 0 72 23 72 56 0 31 -20 44 -67 44 l-43 0
0 -50z"/>
<path d="M538 1303 c-23 -6 -32 -42 -25 -95 6 -46 20 -59 56 -56 18 2 27 11
32 32 14 50 -13 130 -41 125 -3 -1 -13 -3 -22 -6z"/>
<path d="M2048 1299 c-21 -12 -25 -97 -8 -130 12 -21 50 -25 68 -7 20 20 15
112 -6 131 -21 19 -30 20 -54 6z"/>
</g>
</svg>
